<?xml version="1.0" encoding="utf-8" standalone="no"?>
<!DOCTYPE svg PUBLIC "-//W3C//DTD SVG 1.1//EN"
  "http://www.w3.org/Graphics/SVG/1.1/DTD/svg11.dtd">
<svg xmlns:xlink="http://www.w3.org/1999/xlink" width="720pt" height="360pt" viewBox="0 0 720 360" xmlns="http://www.w3.org/2000/svg" version="1.1">
 <metadata>
  <rdf:RDF xmlns:dc="http://purl.org/dc/elements/1.1/" xmlns:cc="http://creativecommons.org/ns#" xmlns:rdf="http://www.w3.org/1999/02/22-rdf-syntax-ns#">
   <cc:Work>
    <dc:type rdf:resource="http://purl.org/dc/dcmitype/StillImage"/>
    <dc:date>2024-07-14T22:08:46.434811</dc:date>
    <dc:format>image/svg+xml</dc:format>
    <dc:creator>
     <cc:Agent>
      <dc:title>Matplotlib v3.7.1, https://matplotlib.org/</dc:title>
     </cc:Agent>
    </dc:creator>
   </cc:Work>
  </rdf:RDF>
 </metadata>
 <defs>
  <style type="text/css">*{stroke-linejoin: round; stroke-linecap: butt}</style>
 </defs>
 <g id="figure_1">
  <g id="patch_1">
   <path d="M 0 360 
L 720 360 
L 720 0 
L 0 0 
L 0 360 
z
" style="fill: none; opacity: 0"/>
  </g>
  <g id="axes_1">
   <g id="patch_2">
    <path d="M 10.8 174.6 
L 231.4 174.6 
L 231.4 15.8 
L 10.8 15.8 
L 10.8 174.6 
z
" style="fill: none; opacity: 0"/>
   </g>
   <g id="matplotlib.axis_1"/>
   <g id="matplotlib.axis_2"/>
   <g id="line2d_1">
    <path d="M 10.8 95.2 
L 13.028283 95.2 
L 15.256566 95.2 
L 17.484848 95.2 
L 19.713131 95.2 
L 21.941414 95.2 
L 24.169697 95.2 
L 26.39798 95.2 
L 28.626263 95.2 
L 30.854545 95.2 
L 33.082828 95.2 
L 35.311111 95.2 
L 37.539394 95.2 
L 39.767677 95.2 
L 41.99596 95.2 
L 44.224242 95.2 
L 46.452525 95.2 
L 48.680808 95.2 
L 50.909091 95.2 
L 53.137374 95.2 
L 55.365657 95.2 
L 57.593939 95.2 
L 59.822222 95.2 
L 62.050505 95.2 
L 64.278788 95.2 
L 66.507071 95.2 
L 68.735354 95.2 
L 70.963636 95.2 
L 73.191919 95.2 
L 75.420202 95.2 
L 77.648485 95.2 
L 79.876768 95.2 
L 82.105051 95.2 
L 84.333333 95.2 
L 86.561616 95.2 
L 88.789899 95.2 
L 91.018182 95.2 
L 93.246465 95.2 
L 95.474747 95.2 
L 97.70303 95.2 
L 99.931313 95.2 
L 102.159596 95.2 
L 104.387879 95.2 
L 106.616162 95.2 
L 108.844444 95.2 
L 111.072727 95.2 
L 113.30101 95.2 
L 115.529293 95.2 
L 117.757576 95.2 
L 119.985859 95.2 
L 122.214141 29.033333 
L 124.442424 29.033333 
L 126.670707 29.033333 
L 128.89899 29.033333 
L 131.127273 29.033333 
L 133.355556 29.033333 
L 135.583838 29.033333 
L 137.812121 29.033333 
L 140.040404 29.033333 
L 142.268687 29.033333 
L 144.49697 29.033333 
L 146.725253 29.033333 
L 148.953535 29.033333 
L 151.181818 29.033333 
L 153.410101 29.033333 
L 155.638384 29.033333 
L 157.866667 29.033333 
L 160.094949 29.033333 
L 162.323232 29.033333 
L 164.551515 29.033333 
L 166.779798 29.033333 
L 169.008081 29.033333 
L 171.236364 29.033333 
L 173.464646 29.033333 
L 175.692929 29.033333 
L 177.921212 29.033333 
L 180.149495 29.033333 
L 182.377778 29.033333 
L 184.606061 29.033333 
L 186.834343 29.033333 
L 189.062626 29.033333 
L 191.290909 29.033333 
L 193.519192 29.033333 
L 195.747475 29.033333 
L 197.975758 29.033333 
L 200.20404 29.033333 
L 202.432323 29.033333 
L 204.660606 29.033333 
L 206.888889 29.033333 
L 209.117172 29.033333 
L 211.345455 29.033333 
L 213.573737 29.033333 
L 215.80202 29.033333 
L 218.030303 29.033333 
L 220.258586 29.033333 
L 222.486869 29.033333 
L 224.715152 29.033333 
L 226.943434 29.033333 
L 229.171717 29.033333 
L 231.4 29.033333 
" clip-path="url(#p78a571cef9)" style="fill: none; stroke: #423b64; stroke-width: 4; stroke-linecap: square"/>
   </g>
   <g id="line2d_2">
    <defs>
     <path id="mf1884d98f5" d="M 5 0 
L -5 -5 
L -5 5 
z
" style="stroke: #d0d3d6; stroke-linejoin: miter"/>
    </defs>
    <g>
     <use xlink:href="#mf1884d98f5" x="231.4" y="95.2" style="fill: #d0d3d6; stroke: #d0d3d6; stroke-linejoin: miter"/>
    </g>
   </g>
   <g id="line2d_3">
    <defs>
     <path id="m09dd1480a7" d="M 0 -5 
L -5 5 
L 5 5 
z
" style="stroke: #d0d3d6; stroke-linejoin: miter"/>
    </defs>
    <g>
     <use xlink:href="#m09dd1480a7" x="121.1" y="15.8" style="fill: #d0d3d6; stroke: #d0d3d6; stroke-linejoin: miter"/>
    </g>
   </g>
   <g id="line2d_4">
    <path d="M 10.8 95.2 
L 13.028283 95.2 
L 15.256566 95.2 
L 17.484848 95.2 
L 19.713131 95.2 
L 21.941414 95.2 
L 24.169697 95.2 
L 26.39798 95.2 
L 28.626263 95.2 
L 30.854545 95.2 
L 33.082828 95.2 
L 35.311111 95.2 
L 37.539394 95.2 
L 39.767677 95.2 
L 41.99596 95.2 
L 44.224242 95.2 
L 46.452525 95.2 
L 48.680808 95.2 
L 50.909091 95.2 
L 53.137374 95.2 
L 55.365657 95.2 
L 57.593939 95.2 
L 59.822222 95.2 
L 62.050505 95.2 
L 64.278788 95.2 
L 66.507071 95.2 
L 68.735354 95.2 
L 70.963636 95.2 
L 73.191919 95.2 
L 75.420202 95.2 
L 77.648485 95.2 
L 79.876768 95.2 
L 82.105051 95.2 
L 84.333333 95.2 
L 86.561616 95.2 
L 88.789899 95.2 
L 91.018182 95.2 
L 93.246465 95.2 
L 95.474747 95.2 
L 97.70303 95.2 
L 99.931313 95.2 
L 102.159596 95.2 
L 104.387879 95.2 
L 106.616162 95.2 
L 108.844444 95.2 
L 111.072727 95.2 
L 113.30101 95.2 
L 115.529293 95.2 
L 117.757576 95.2 
L 119.985859 95.2 
L 122.214141 95.2 
L 124.442424 95.2 
L 126.670707 95.2 
L 128.89899 95.2 
L 131.127273 95.2 
L 133.355556 95.2 
L 135.583838 95.2 
L 137.812121 95.2 
L 140.040404 95.2 
L 142.268687 95.2 
L 144.49697 95.2 
L 146.725253 95.2 
L 148.953535 95.2 
L 151.181818 95.2 
L 153.410101 95.2 
L 155.638384 95.2 
L 157.866667 95.2 
L 160.094949 95.2 
L 162.323232 95.2 
L 164.551515 95.2 
L 166.779798 95.2 
L 169.008081 95.2 
L 171.236364 95.2 
L 173.464646 95.2 
L 175.692929 95.2 
L 177.921212 95.2 
L 180.149495 95.2 
L 182.377778 95.2 
L 184.606061 95.2 
L 186.834343 95.2 
L 189.062626 95.2 
L 191.290909 95.2 
L 193.519192 95.2 
L 195.747475 95.2 
L 197.975758 95.2 
L 200.20404 95.2 
L 202.432323 95.2 
L 204.660606 95.2 
L 206.888889 95.2 
L 209.117172 95.2 
L 211.345455 95.2 
L 213.573737 95.2 
L 215.80202 95.2 
L 218.030303 95.2 
L 220.258586 95.2 
L 222.486869 95.2 
L 224.715152 95.2 
L 226.943434 95.2 
L 229.171717 95.2 
L 231.4 95.2 
" clip-path="url(#p78a571cef9)" style="fill: none; stroke-dasharray: 4,6.6; stroke-dashoffset: 0; stroke: #8785ba; stroke-width: 4"/>
   </g>
   <g id="patch_3">
    <path d="M 121.1 174.6 
L 121.1 15.8 
" style="fill: none; stroke: #d0d3d6; stroke-width: 3; stroke-linejoin: miter; stroke-linecap: square"/>
   </g>
   <g id="patch_4">
    <path d="M 10.8 95.2 
L 231.4 95.2 
" style="fill: none; stroke: #d0d3d6; stroke-width: 3; stroke-linejoin: miter; stroke-linecap: square"/>
   </g>
  </g>
  <g id="axes_2">
   <g id="patch_5">
    <path d="M 247.2 174.6 
L 467.8 174.6 
L 467.8 15.8 
L 247.2 15.8 
L 247.2 174.6 
z
" style="fill: none; opacity: 0"/>
   </g>
   <g id="matplotlib.axis_3"/>
   <g id="matplotlib.axis_4"/>
   <g id="line2d_5">
    <path d="M 247.2 94.757156 
L 249.428283 94.710436 
L 251.656566 94.658827 
L 253.884848 94.601826 
L 256.113131 94.538883 
L 258.341414 94.46939 
L 260.569697 94.392683 
L 262.79798 94.308032 
L 265.026263 94.214638 
L 267.254545 94.111629 
L 269.482828 93.99805 
L 271.711111 93.87286 
L 273.939394 93.734924 
L 276.167677 93.58301 
L 278.39596 93.415778 
L 280.624242 93.231778 
L 282.852525 93.029443 
L 285.080808 92.807082 
L 287.309091 92.562881 
L 289.537374 92.294894 
L 291.765657 92.001045 
L 293.993939 91.679128 
L 296.222222 91.326808 
L 298.450505 90.94163 
L 300.678788 90.521023 
L 302.907071 90.062321 
L 305.135354 89.562772 
L 307.363636 89.01957 
L 309.591919 88.429879 
L 311.820202 87.790874 
L 314.048485 87.099781 
L 316.276768 86.353931 
L 318.505051 85.550817 
L 320.733333 84.688161 
L 322.961616 83.763987 
L 325.189899 82.7767 
L 327.418182 81.725163 
L 329.646465 80.608786 
L 331.874747 79.427604 
L 334.10303 78.182353 
L 336.331313 76.87454 
L 338.559596 75.506492 
L 340.787879 74.081398 
L 343.016162 72.603322 
L 345.244444 71.077192 
L 347.472727 69.508768 
L 349.70101 67.904571 
L 351.929293 66.271798 
L 354.157576 64.618196 
L 356.385859 62.951927 
L 358.614141 61.281406 
L 360.842424 59.615137 
L 363.070707 57.961535 
L 365.29899 56.328762 
L 367.527273 54.724566 
L 369.755556 53.156141 
L 371.983838 51.630012 
L 374.212121 50.151935 
L 376.440404 48.726842 
L 378.668687 47.358794 
L 380.89697 46.05098 
L 383.125253 44.805729 
L 385.353535 43.624547 
L 387.581818 42.508171 
L 389.810101 41.456634 
L 392.038384 40.469346 
L 394.266667 39.545172 
L 396.494949 38.682516 
L 398.723232 37.879402 
L 400.951515 37.133552 
L 403.179798 36.442459 
L 405.408081 35.803454 
L 407.636364 35.213763 
L 409.864646 34.670561 
L 412.092929 34.171013 
L 414.321212 33.71231 
L 416.549495 33.291704 
L 418.777778 32.906525 
L 421.006061 32.554205 
L 423.234343 32.232288 
L 425.462626 31.938439 
L 427.690909 31.670452 
L 429.919192 31.426251 
L 432.147475 31.203891 
L 434.375758 31.001555 
L 436.60404 30.817555 
L 438.832323 30.650323 
L 441.060606 30.498409 
L 443.288889 30.360474 
L 445.517172 30.235283 
L 447.745455 30.121704 
L 449.973737 30.018695 
L 452.20202 29.925302 
L 454.430303 29.84065 
L 456.658586 29.763943 
L 458.886869 29.69445 
L 461.115152 29.631507 
L 463.343434 29.574507 
L 465.571717 29.522898 
L 467.8 29.476177 
" clip-path="url(#pa2ebc58fdf)" style="fill: none; stroke: #423b64; stroke-width: 4; stroke-linecap: square"/>
   </g>
   <g id="line2d_6">
    <g>
     <use xlink:href="#mf1884d98f5" x="467.8" y="95.2" style="fill: #d0d3d6; stroke: #d0d3d6; stroke-linejoin: miter"/>
    </g>
   </g>
   <g id="line2d_7">
    <g>
     <use xlink:href="#m09dd1480a7" x="357.5" y="15.8" style="fill: #d0d3d6; stroke: #d0d3d6; stroke-linejoin: miter"/>
    </g>
   </g>
   <g id="line2d_8">
    <path d="M 247.2 94.76012 
L 249.428283 94.714058 
L 251.656566 94.663253 
L 253.884848 94.607234 
L 256.113131 94.545489 
L 258.341414 94.477458 
L 260.569697 94.402533 
L 262.79798 94.320056 
L 265.026263 94.229312 
L 267.254545 94.129532 
L 269.482828 94.019884 
L 271.711111 93.899479 
L 273.939394 93.767364 
L 276.167677 93.622526 
L 278.39596 93.463891 
L 280.624242 93.290326 
L 282.852525 93.100647 
L 285.080808 92.893622 
L 287.309091 92.667985 
L 289.537374 92.422445 
L 291.765657 92.155705 
L 293.993939 91.866481 
L 296.222222 91.553533 
L 298.450505 91.215691 
L 300.678788 90.851897 
L 302.907071 90.461249 
L 305.135354 90.043049 
L 307.363636 89.596865 
L 309.591919 89.122593 
L 311.820202 88.620524 
L 314.048485 88.091422 
L 316.276768 87.536595 
L 318.505051 86.957972 
L 320.733333 86.358167 
L 322.961616 85.740547 
L 325.189899 85.10927 
L 327.418182 84.469312 
L 329.646465 83.826471 
L 331.874747 83.187329 
L 334.10303 82.559184 
L 336.331313 81.949943 
L 338.559596 81.367967 
L 340.787879 80.821882 
L 343.016162 80.320347 
L 345.244444 79.8718 
L 347.472727 79.484175 
L 349.70101 79.164628 
L 351.929293 78.919267 
L 354.157576 78.752907 
L 356.385859 78.668877 
L 358.614141 78.668877 
L 360.842424 78.752907 
L 363.070707 78.919267 
L 365.29899 79.164628 
L 367.527273 79.484175 
L 369.755556 79.8718 
L 371.983838 80.320347 
L 374.212121 80.821882 
L 376.440404 81.367967 
L 378.668687 81.949943 
L 380.89697 82.559184 
L 383.125253 83.187329 
L 385.353535 83.826471 
L 387.581818 84.469312 
L 389.810101 85.10927 
L 392.038384 85.740547 
L 394.266667 86.358167 
L 396.494949 86.957972 
L 398.723232 87.536595 
L 400.951515 88.091422 
L 403.179798 88.620524 
L 405.408081 89.122593 
L 407.636364 89.596865 
L 409.864646 90.043049 
L 412.092929 90.461249 
L 414.321212 90.851897 
L 416.549495 91.215691 
L 418.777778 91.553533 
L 421.006061 91.866481 
L 423.234343 92.155705 
L 425.462626 92.422445 
L 427.690909 92.667985 
L 429.919192 92.893622 
L 432.147475 93.100647 
L 434.375758 93.290326 
L 436.60404 93.463891 
L 438.832323 93.622526 
L 441.060606 93.767364 
L 443.288889 93.899479 
L 445.517172 94.019884 
L 447.745455 94.129532 
L 449.973737 94.229312 
L 452.20202 94.320056 
L 454.430303 94.402533 
L 456.658586 94.477458 
L 458.886869 94.545489 
L 461.115152 94.607234 
L 463.343434 94.663253 
L 465.571717 94.714058 
L 467.8 94.76012 
" clip-path="url(#pa2ebc58fdf)" style="fill: none; stroke-dasharray: 4,6.6; stroke-dashoffset: 0; stroke: #8785ba; stroke-width: 4"/>
   </g>
   <g id="patch_6">
    <path d="M 357.5 174.6 
L 357.5 15.8 
" style="fill: none; stroke: #d0d3d6; stroke-width: 3; stroke-linejoin: miter; stroke-linecap: square"/>
   </g>
   <g id="patch_7">
    <path d="M 247.2 95.2 
L 467.8 95.2 
" style="fill: none; stroke: #d0d3d6; stroke-width: 3; stroke-linejoin: miter; stroke-linecap: square"/>
   </g>
  </g>
  <g id="axes_3">
   <g id="patch_8">
    <path d="M 483.6 174.6 
L 704.2 174.6 
L 704.2 15.8 
L 483.6 15.8 
L 483.6 174.6 
z
" style="fill: none; opacity: 0"/>
   </g>
   <g id="matplotlib.axis_5"/>
   <g id="matplotlib.axis_6"/>
   <g id="line2d_9">
    <path d="M 483.6 161.360659 
L 485.828283 161.359314 
L 488.056566 161.357668 
L 490.284848 161.355654 
L 492.513131 161.353189 
L 494.741414 161.350172 
L 496.969697 161.346479 
L 499.19798 161.341961 
L 501.426263 161.336431 
L 503.654545 161.329664 
L 505.882828 161.321383 
L 508.111111 161.31125 
L 510.339394 161.29885 
L 512.567677 161.283677 
L 514.79596 161.265112 
L 517.024242 161.242398 
L 519.252525 161.21461 
L 521.480808 161.180617 
L 523.709091 161.139037 
L 525.937374 161.088184 
L 528.165657 161.026 
L 530.393939 160.949974 
L 532.622222 160.857047 
L 534.850505 160.743494 
L 537.078788 160.604786 
L 539.307071 160.435422 
L 541.535354 160.228734 
L 543.763636 159.976658 
L 545.991919 159.669464 
L 548.220202 159.295453 
L 550.448485 158.840616 
L 552.676768 158.288258 
L 554.905051 157.618605 
L 557.133333 156.808419 
L 559.361616 155.830642 
L 561.589899 154.654143 
L 563.818182 153.243635 
L 566.046465 151.559875 
L 568.274747 149.560276 
L 570.50303 147.200099 
L 572.731313 144.434391 
L 574.959596 141.220793 
L 577.187879 137.523297 
L 579.416162 133.316852 
L 581.644444 128.59249 
L 583.872727 123.362399 
L 586.10101 117.664056 
L 588.329293 111.562419 
L 590.557576 105.149234 
L 592.785859 98.538912 
L 595.014141 91.861088 
L 597.242424 85.250766 
L 599.470707 78.837581 
L 601.69899 72.735944 
L 603.927273 67.037601 
L 606.155556 61.80751 
L 608.383838 57.083148 
L 610.612121 52.876703 
L 612.840404 49.179207 
L 615.068687 45.965609 
L 617.29697 43.199901 
L 619.525253 40.839724 
L 621.753535 38.840125 
L 623.981818 37.156365 
L 626.210101 35.745857 
L 628.438384 34.569358 
L 630.666667 33.591581 
L 632.894949 32.781395 
L 635.123232 32.111742 
L 637.351515 31.559384 
L 639.579798 31.104547 
L 641.808081 30.730536 
L 644.036364 30.423342 
L 646.264646 30.171266 
L 648.492929 29.964578 
L 650.721212 29.795214 
L 652.949495 29.656506 
L 655.177778 29.542953 
L 657.406061 29.450026 
L 659.634343 29.374 
L 661.862626 29.311816 
L 664.090909 29.260963 
L 666.319192 29.219383 
L 668.547475 29.18539 
L 670.775758 29.157602 
L 673.00404 29.134888 
L 675.232323 29.116323 
L 677.460606 29.10115 
L 679.688889 29.08875 
L 681.917172 29.078617 
L 684.145455 29.070336 
L 686.373737 29.063569 
L 688.60202 29.058039 
L 690.830303 29.053521 
L 693.058586 29.049828 
L 695.286869 29.046811 
L 697.515152 29.044346 
L 699.743434 29.042332 
L 701.971717 29.040686 
L 704.2 29.039341 
" clip-path="url(#p23f5d8d082)" style="fill: none; stroke: #423b64; stroke-width: 4; stroke-linecap: square"/>
   </g>
   <g id="line2d_10">
    <g>
     <use xlink:href="#mf1884d98f5" x="704.2" y="95.2" style="fill: #d0d3d6; stroke: #d0d3d6; stroke-linejoin: miter"/>
    </g>
   </g>
   <g id="line2d_11">
    <g>
     <use xlink:href="#m09dd1480a7" x="593.9" y="15.8" style="fill: #d0d3d6; stroke: #d0d3d6; stroke-linejoin: miter"/>
    </g>
   </g>
   <g id="line2d_12">
    <path d="M 483.6 95.187985 
L 485.828283 95.185296 
L 488.056566 95.182004 
L 490.284848 95.177976 
L 492.513131 95.173047 
L 494.741414 95.167014 
L 496.969697 95.159632 
L 499.19798 95.150598 
L 501.426263 95.139543 
L 503.654545 95.126016 
L 505.882828 95.109464 
L 508.111111 95.089213 
L 510.339394 95.064436 
L 512.567677 95.034125 
L 514.79596 94.997047 
L 517.024242 94.951697 
L 519.252525 94.896236 
L 521.480808 94.828423 
L 523.709091 94.745523 
L 525.937374 94.644206 
L 528.165657 94.52042 
L 530.393939 94.369238 
L 532.622222 94.184685 
L 534.850505 93.959524 
L 537.078788 93.685011 
L 539.307071 93.350617 
L 541.535354 92.943705 
L 543.763636 92.449183 
L 545.991919 91.849128 
L 548.220202 91.122408 
L 550.448485 90.244336 
L 552.676768 89.186405 
L 554.905051 87.916189 
L 557.133333 86.397524 
L 559.361616 84.591138 
L 561.589899 82.45593 
L 563.818182 79.951171 
L 566.046465 77.039916 
L 568.274747 73.693881 
L 570.50303 69.899988 
L 572.731313 65.668476 
L 574.959596 61.0421 
L 577.187879 56.105296 
L 579.416162 50.991435 
L 581.644444 45.885601 
L 583.872727 41.020044 
L 586.10101 36.660041 
L 588.329293 33.079612 
L 590.557576 30.529363 
L 592.785859 29.201822 
L 595.014141 29.201822 
L 597.242424 30.529363 
L 599.470707 33.079612 
L 601.69899 36.660041 
L 603.927273 41.020044 
L 606.155556 45.885601 
L 608.383838 50.991435 
L 610.612121 56.105296 
L 612.840404 61.0421 
L 615.068687 65.668476 
L 617.29697 69.899988 
L 619.525253 73.693881 
L 621.753535 77.039916 
L 623.981818 79.951171 
L 626.210101 82.45593 
L 628.438384 84.591138 
L 630.666667 86.397524 
L 632.894949 87.916189 
L 635.123232 89.186405 
L 637.351515 90.244336 
L 639.579798 91.122408 
L 641.808081 91.849128 
L 644.036364 92.449183 
L 646.264646 92.943705 
L 648.492929 93.350617 
L 650.721212 93.685011 
L 652.949495 93.959524 
L 655.177778 94.184685 
L 657.406061 94.369238 
L 659.634343 94.52042 
L 661.862626 94.644206 
L 664.090909 94.745523 
L 666.319192 94.828423 
L 668.547475 94.896236 
L 670.775758 94.951697 
L 673.00404 94.997047 
L 675.232323 95.034125 
L 677.460606 95.064436 
L 679.688889 95.089213 
L 681.917172 95.109464 
L 684.145455 95.126016 
L 686.373737 95.139543 
L 688.60202 95.150598 
L 690.830303 95.159632 
L 693.058586 95.167014 
L 695.286869 95.173047 
L 697.515152 95.177976 
L 699.743434 95.182004 
L 701.971717 95.185296 
L 704.2 95.187985 
" clip-path="url(#p23f5d8d082)" style="fill: none; stroke-dasharray: 4,6.6; stroke-dashoffset: 0; stroke: #8785ba; stroke-width: 4"/>
   </g>
   <g id="patch_9">
    <path d="M 593.9 174.6 
L 593.9 15.8 
" style="fill: none; stroke: #d0d3d6; stroke-width: 3; stroke-linejoin: miter; stroke-linecap: square"/>
   </g>
   <g id="patch_10">
    <path d="M 483.6 95.2 
L 704.2 95.2 
" style="fill: none; stroke: #d0d3d6; stroke-width: 3; stroke-linejoin: miter; stroke-linecap: square"/>
   </g>
  </g>
  <g id="axes_4">
   <g id="patch_11">
    <path d="M 10.8 349.2 
L 231.4 349.2 
L 231.4 190.4 
L 10.8 190.4 
L 10.8 349.2 
z
" style="fill: none; opacity: 0"/>
   </g>
   <g id="matplotlib.axis_7"/>
   <g id="matplotlib.axis_8"/>
   <g id="line2d_13">
    <path d="M 10.8 269.8 
L 13.028283 269.8 
L 15.256566 269.8 
L 17.484848 269.8 
L 19.713131 269.8 
L 21.941414 269.8 
L 24.169697 269.8 
L 26.39798 269.8 
L 28.626263 269.8 
L 30.854545 269.8 
L 33.082828 269.8 
L 35.311111 269.8 
L 37.539394 269.8 
L 39.767677 269.8 
L 41.99596 269.8 
L 44.224242 269.8 
L 46.452525 269.8 
L 48.680808 269.8 
L 50.909091 269.8 
L 53.137374 269.8 
L 55.365657 269.8 
L 57.593939 269.8 
L 59.822222 269.8 
L 62.050505 269.8 
L 64.278788 269.8 
L 66.507071 269.8 
L 68.735354 269.8 
L 70.963636 269.8 
L 73.191919 269.8 
L 75.420202 269.8 
L 77.648485 269.8 
L 79.876768 269.8 
L 82.105051 269.8 
L 84.333333 269.8 
L 86.561616 269.8 
L 88.789899 269.8 
L 91.018182 269.8 
L 93.246465 269.8 
L 95.474747 269.8 
L 97.70303 269.8 
L 99.931313 269.8 
L 102.159596 269.8 
L 104.387879 269.8 
L 106.616162 269.8 
L 108.844444 269.8 
L 111.072727 269.8 
L 113.30101 269.8 
L 115.529293 269.8 
L 117.757576 269.8 
L 119.985859 269.8 
L 122.214141 266.458249 
L 124.442424 259.774747 
L 126.670707 253.091246 
L 128.89899 246.407744 
L 131.127273 239.724242 
L 133.355556 233.040741 
L 135.583838 226.357239 
L 137.812121 219.673737 
L 140.040404 212.990236 
L 142.268687 206.306734 
L 144.49697 199.623232 
L 146.725253 192.939731 
L 148.953535 186.256229 
L 151.181818 179.572727 
L 153.410101 172.889226 
L 155.638384 166.205724 
L 157.866667 159.522222 
L 160.094949 152.838721 
L 162.323232 146.155219 
L 164.551515 139.471717 
L 166.779798 132.788215 
L 169.008081 126.104714 
L 171.236364 119.421212 
L 173.464646 112.73771 
L 175.692929 106.054209 
L 177.921212 99.370707 
L 180.149495 92.687205 
L 182.377778 86.003704 
L 184.606061 79.320202 
L 186.834343 72.6367 
L 189.062626 65.953199 
L 191.290909 59.269697 
L 193.519192 52.586195 
L 195.747475 45.902694 
L 197.975758 39.219192 
L 200.20404 32.53569 
L 202.432323 25.852189 
L 204.660606 19.168687 
L 206.888889 12.485185 
L 209.117172 5.801684 
L 211.345455 -0.881818 
L 211.384856 -1 
" clip-path="url(#p6b3affeff1)" style="fill: none; stroke: #423b64; stroke-width: 4; stroke-linecap: square"/>
   </g>
   <g id="line2d_14">
    <g>
     <use xlink:href="#mf1884d98f5" x="231.4" y="269.8" style="fill: #d0d3d6; stroke: #d0d3d6; stroke-linejoin: miter"/>
    </g>
   </g>
   <g id="line2d_15">
    <g>
     <use xlink:href="#m09dd1480a7" x="121.1" y="190.4" style="fill: #d0d3d6; stroke: #d0d3d6; stroke-linejoin: miter"/>
    </g>
   </g>
   <g id="line2d_16">
    <path d="M 10.8 269.8 
L 13.028283 269.8 
L 15.256566 269.8 
L 17.484848 269.8 
L 19.713131 269.8 
L 21.941414 269.8 
L 24.169697 269.8 
L 26.39798 269.8 
L 28.626263 269.8 
L 30.854545 269.8 
L 33.082828 269.8 
L 35.311111 269.8 
L 37.539394 269.8 
L 39.767677 269.8 
L 41.99596 269.8 
L 44.224242 269.8 
L 46.452525 269.8 
L 48.680808 269.8 
L 50.909091 269.8 
L 53.137374 269.8 
L 55.365657 269.8 
L 57.593939 269.8 
L 59.822222 269.8 
L 62.050505 269.8 
L 64.278788 269.8 
L 66.507071 269.8 
L 68.735354 269.8 
L 70.963636 269.8 
L 73.191919 269.8 
L 75.420202 269.8 
L 77.648485 269.8 
L 79.876768 269.8 
L 82.105051 269.8 
L 84.333333 269.8 
L 86.561616 269.8 
L 88.789899 269.8 
L 91.018182 269.8 
L 93.246465 269.8 
L 95.474747 269.8 
L 97.70303 269.8 
L 99.931313 269.8 
L 102.159596 269.8 
L 104.387879 269.8 
L 106.616162 269.8 
L 108.844444 269.8 
L 111.072727 269.8 
L 113.30101 269.8 
L 115.529293 269.8 
L 117.757576 269.8 
L 119.985859 269.8 
L 122.214141 203.633333 
L 124.442424 203.633333 
L 126.670707 203.633333 
L 128.89899 203.633333 
L 131.127273 203.633333 
L 133.355556 203.633333 
L 135.583838 203.633333 
L 137.812121 203.633333 
L 140.040404 203.633333 
L 142.268687 203.633333 
L 144.49697 203.633333 
L 146.725253 203.633333 
L 148.953535 203.633333 
L 151.181818 203.633333 
L 153.410101 203.633333 
L 155.638384 203.633333 
L 157.866667 203.633333 
L 160.094949 203.633333 
L 162.323232 203.633333 
L 164.551515 203.633333 
L 166.779798 203.633333 
L 169.008081 203.633333 
L 171.236364 203.633333 
L 173.464646 203.633333 
L 175.692929 203.633333 
L 177.921212 203.633333 
L 180.149495 203.633333 
L 182.377778 203.633333 
L 184.606061 203.633333 
L 186.834343 203.633333 
L 189.062626 203.633333 
L 191.290909 203.633333 
L 193.519192 203.633333 
L 195.747475 203.633333 
L 197.975758 203.633333 
L 200.20404 203.633333 
L 202.432323 203.633333 
L 204.660606 203.633333 
L 206.888889 203.633333 
L 209.117172 203.633333 
L 211.345455 203.633333 
L 213.573737 203.633333 
L 215.80202 203.633333 
L 218.030303 203.633333 
L 220.258586 203.633333 
L 222.486869 203.633333 
L 224.715152 203.633333 
L 226.943434 203.633333 
L 229.171717 203.633333 
L 231.4 203.633333 
" clip-path="url(#p6b3affeff1)" style="fill: none; stroke-dasharray: 4,6.6; stroke-dashoffset: 0; stroke: #8785ba; stroke-width: 4"/>
   </g>
   <g id="patch_12">
    <path d="M 121.1 349.2 
L 121.1 190.4 
" style="fill: none; stroke: #d0d3d6; stroke-width: 3; stroke-linejoin: miter; stroke-linecap: square"/>
   </g>
   <g id="patch_13">
    <path d="M 10.8 269.8 
L 231.4 269.8 
" style="fill: none; stroke: #d0d3d6; stroke-width: 3; stroke-linejoin: miter; stroke-linecap: square"/>
   </g>
  </g>
  <g id="axes_5">
   <g id="patch_14">
    <path d="M 247.2 349.2 
L 467.8 349.2 
L 467.8 190.4 
L 247.2 190.4 
L 247.2 349.2 
z
" style="fill: none; opacity: 0"/>
   </g>
   <g id="matplotlib.axis_9"/>
   <g id="matplotlib.axis_10"/>
   <g id="line2d_17">
    <path d="M 247.2 302.883333 
L 249.428283 302.214983 
L 251.656566 301.546633 
L 253.884848 300.878283 
L 256.113131 300.209933 
L 258.341414 299.541582 
L 260.569697 298.873232 
L 262.79798 298.204882 
L 265.026263 297.536532 
L 267.254545 296.868182 
L 269.482828 296.199832 
L 271.711111 295.531481 
L 273.939394 294.863131 
L 276.167677 294.194781 
L 278.39596 293.526431 
L 280.624242 292.858081 
L 282.852525 292.189731 
L 285.080808 291.52138 
L 287.309091 290.85303 
L 289.537374 290.18468 
L 291.765657 289.51633 
L 293.993939 288.84798 
L 296.222222 288.17963 
L 298.450505 287.511279 
L 300.678788 286.842929 
L 302.907071 286.174579 
L 305.135354 285.506229 
L 307.363636 284.837879 
L 309.591919 284.169529 
L 311.820202 283.501178 
L 314.048485 282.832828 
L 316.276768 282.164478 
L 318.505051 281.496128 
L 320.733333 280.827778 
L 322.961616 280.159428 
L 325.189899 279.491077 
L 327.418182 278.822727 
L 329.646465 278.154377 
L 331.874747 277.486027 
L 334.10303 276.817677 
L 336.331313 276.149327 
L 338.559596 275.480976 
L 340.787879 274.812626 
L 343.016162 274.144276 
L 345.244444 273.475926 
L 347.472727 272.807576 
L 349.70101 272.139226 
L 351.929293 271.470875 
L 354.157576 270.802525 
L 356.385859 270.134175 
L 358.614141 266.458249 
L 360.842424 259.774747 
L 363.070707 253.091246 
L 365.29899 246.407744 
L 367.527273 239.724242 
L 369.755556 233.040741 
L 371.983838 226.357239 
L 374.212121 219.673737 
L 376.440404 212.990236 
L 378.668687 206.306734 
L 380.89697 199.623232 
L 383.125253 192.939731 
L 385.353535 186.256229 
L 387.581818 179.572727 
L 389.810101 172.889226 
L 392.038384 166.205724 
L 394.266667 159.522222 
L 396.494949 152.838721 
L 398.723232 146.155219 
L 400.951515 139.471717 
L 403.179798 132.788215 
L 405.408081 126.104714 
L 407.636364 119.421212 
L 409.864646 112.73771 
L 412.092929 106.054209 
L 414.321212 99.370707 
L 416.549495 92.687205 
L 418.777778 86.003704 
L 421.006061 79.320202 
L 423.234343 72.6367 
L 425.462626 65.953199 
L 427.690909 59.269697 
L 429.919192 52.586195 
L 432.147475 45.902694 
L 434.375758 39.219192 
L 436.60404 32.53569 
L 438.832323 25.852189 
L 441.060606 19.168687 
L 443.288889 12.485185 
L 445.517172 5.801684 
L 447.745455 -0.881818 
L 447.784856 -1 
" clip-path="url(#p4fb5830029)" style="fill: none; stroke: #423b64; stroke-width: 4; stroke-linecap: square"/>
   </g>
   <g id="line2d_18">
    <g>
     <use xlink:href="#mf1884d98f5" x="467.8" y="269.8" style="fill: #d0d3d6; stroke: #d0d3d6; stroke-linejoin: miter"/>
    </g>
   </g>
   <g id="line2d_19">
    <g>
     <use xlink:href="#m09dd1480a7" x="357.5" y="190.4" style="fill: #d0d3d6; stroke: #d0d3d6; stroke-linejoin: miter"/>
    </g>
   </g>
   <g id="line2d_20">
    <path d="M 247.2 263.183333 
L 249.428283 263.183333 
L 251.656566 263.183333 
L 253.884848 263.183333 
L 256.113131 263.183333 
L 258.341414 263.183333 
L 260.569697 263.183333 
L 262.79798 263.183333 
L 265.026263 263.183333 
L 267.254545 263.183333 
L 269.482828 263.183333 
L 271.711111 263.183333 
L 273.939394 263.183333 
L 276.167677 263.183333 
L 278.39596 263.183333 
L 280.624242 263.183333 
L 282.852525 263.183333 
L 285.080808 263.183333 
L 287.309091 263.183333 
L 289.537374 263.183333 
L 291.765657 263.183333 
L 293.993939 263.183333 
L 296.222222 263.183333 
L 298.450505 263.183333 
L 300.678788 263.183333 
L 302.907071 263.183333 
L 305.135354 263.183333 
L 307.363636 263.183333 
L 309.591919 263.183333 
L 311.820202 263.183333 
L 314.048485 263.183333 
L 316.276768 263.183333 
L 318.505051 263.183333 
L 320.733333 263.183333 
L 322.961616 263.183333 
L 325.189899 263.183333 
L 327.418182 263.183333 
L 329.646465 263.183333 
L 331.874747 263.183333 
L 334.10303 263.183333 
L 336.331313 263.183333 
L 338.559596 263.183333 
L 340.787879 263.183333 
L 343.016162 263.183333 
L 345.244444 263.183333 
L 347.472727 263.183333 
L 349.70101 263.183333 
L 351.929293 263.183333 
L 354.157576 263.183333 
L 356.385859 263.183333 
L 358.614141 203.633333 
L 360.842424 203.633333 
L 363.070707 203.633333 
L 365.29899 203.633333 
L 367.527273 203.633333 
L 369.755556 203.633333 
L 371.983838 203.633333 
L 374.212121 203.633333 
L 376.440404 203.633333 
L 378.668687 203.633333 
L 380.89697 203.633333 
L 383.125253 203.633333 
L 385.353535 203.633333 
L 387.581818 203.633333 
L 389.810101 203.633333 
L 392.038384 203.633333 
L 394.266667 203.633333 
L 396.494949 203.633333 
L 398.723232 203.633333 
L 400.951515 203.633333 
L 403.179798 203.633333 
L 405.408081 203.633333 
L 407.636364 203.633333 
L 409.864646 203.633333 
L 412.092929 203.633333 
L 414.321212 203.633333 
L 416.549495 203.633333 
L 418.777778 203.633333 
L 421.006061 203.633333 
L 423.234343 203.633333 
L 425.462626 203.633333 
L 427.690909 203.633333 
L 429.919192 203.633333 
L 432.147475 203.633333 
L 434.375758 203.633333 
L 436.60404 203.633333 
L 438.832323 203.633333 
L 441.060606 203.633333 
L 443.288889 203.633333 
L 445.517172 203.633333 
L 447.745455 203.633333 
L 449.973737 203.633333 
L 452.20202 203.633333 
L 454.430303 203.633333 
L 456.658586 203.633333 
L 458.886869 203.633333 
L 461.115152 203.633333 
L 463.343434 203.633333 
L 465.571717 203.633333 
L 467.8 203.633333 
" clip-path="url(#p4fb5830029)" style="fill: none; stroke-dasharray: 4,6.6; stroke-dashoffset: 0; stroke: #8785ba; stroke-width: 4"/>
   </g>
   <g id="patch_15">
    <path d="M 357.5 349.2 
L 357.5 190.4 
" style="fill: none; stroke: #d0d3d6; stroke-width: 3; stroke-linejoin: miter; stroke-linecap: square"/>
   </g>
   <g id="patch_16">
    <path d="M 247.2 269.8 
L 467.8 269.8 
" style="fill: none; stroke: #d0d3d6; stroke-width: 3; stroke-linejoin: miter; stroke-linecap: square"/>
   </g>
  </g>
  <g id="axes_6">
   <g id="patch_17">
    <path d="M 483.6 349.2 
L 704.2 349.2 
L 704.2 190.4 
L 483.6 190.4 
L 483.6 349.2 
z
" style="fill: none; opacity: 0"/>
   </g>
   <g id="matplotlib.axis_11"/>
   <g id="matplotlib.axis_12"/>
   <g id="line2d_21">
    <path d="M 483.6 335.520839 
L 485.828283 335.473453 
L 488.056566 335.421031 
L 490.284848 335.363036 
L 492.513131 335.298878 
L 494.741414 335.2279 
L 496.969697 335.149378 
L 499.19798 335.06251 
L 501.426263 334.966409 
L 503.654545 334.860094 
L 505.882828 334.742479 
L 508.111111 334.612362 
L 510.339394 334.468416 
L 512.567677 334.309171 
L 514.79596 334.132999 
L 517.024242 333.938102 
L 519.252525 333.722491 
L 521.480808 333.483962 
L 523.709091 333.220081 
L 525.937374 332.928152 
L 528.165657 332.605195 
L 530.393939 332.247912 
L 532.622222 331.852653 
L 534.850505 331.415384 
L 537.078788 330.931638 
L 539.307071 330.396476 
L 541.535354 329.804432 
L 543.763636 329.149462 
L 545.991919 328.424876 
L 548.220202 327.623276 
L 550.448485 326.736475 
L 552.676768 325.755418 
L 554.905051 324.670086 
L 557.133333 323.469398 
L 559.361616 322.14109 
L 561.589899 320.6716 
L 563.818182 319.045921 
L 566.046465 317.247451 
L 568.274747 315.257827 
L 570.50303 313.05673 
L 572.731313 310.621682 
L 574.959596 307.927819 
L 577.187879 304.947631 
L 579.416162 301.650686 
L 581.644444 298.003315 
L 583.872727 293.968274 
L 586.10101 289.504356 
L 588.329293 284.565979 
L 590.557576 279.102712 
L 592.785859 273.058766 
L 595.014141 266.458249 
L 597.242424 259.774747 
L 599.470707 253.091246 
L 601.69899 246.407744 
L 603.927273 239.724242 
L 606.155556 233.040741 
L 608.383838 226.357239 
L 610.612121 219.673737 
L 612.840404 212.990236 
L 615.068687 206.306734 
L 617.29697 199.623232 
L 619.525253 192.939731 
L 621.753535 186.256229 
L 623.981818 179.572727 
L 626.210101 172.889226 
L 628.438384 166.205724 
L 630.666667 159.522222 
L 632.894949 152.838721 
L 635.123232 146.155219 
L 637.351515 139.471717 
L 639.579798 132.788215 
L 641.808081 126.104714 
L 644.036364 119.421212 
L 646.264646 112.73771 
L 648.492929 106.054209 
L 650.721212 99.370707 
L 652.949495 92.687205 
L 655.177778 86.003704 
L 657.406061 79.320202 
L 659.634343 72.6367 
L 661.862626 65.953199 
L 664.090909 59.269697 
L 666.319192 52.586195 
L 668.547475 45.902694 
L 670.775758 39.219192 
L 673.00404 32.53569 
L 675.232323 25.852189 
L 677.460606 19.168687 
L 679.688889 12.485185 
L 681.917172 5.801684 
L 684.145455 -0.881818 
L 684.184856 -1 
" clip-path="url(#pd9eddd2816)" style="fill: none; stroke: #423b64; stroke-width: 4; stroke-linecap: square"/>
   </g>
   <g id="line2d_22">
    <g>
     <use xlink:href="#mf1884d98f5" x="704.2" y="269.8" style="fill: #d0d3d6; stroke: #d0d3d6; stroke-linejoin: miter"/>
    </g>
   </g>
   <g id="line2d_23">
    <g>
     <use xlink:href="#m09dd1480a7" x="593.9" y="190.4" style="fill: #d0d3d6; stroke: #d0d3d6; stroke-linejoin: miter"/>
    </g>
   </g>
   <g id="line2d_24">
    <path d="M 483.6 269.354173 
L 485.828283 269.306786 
L 488.056566 269.254364 
L 490.284848 269.196369 
L 492.513131 269.132211 
L 494.741414 269.061233 
L 496.969697 268.982711 
L 499.19798 268.895843 
L 501.426263 268.799742 
L 503.654545 268.693427 
L 505.882828 268.575812 
L 508.111111 268.445696 
L 510.339394 268.30175 
L 512.567677 268.142504 
L 514.79596 267.966332 
L 517.024242 267.771436 
L 519.252525 267.555824 
L 521.480808 267.317295 
L 523.709091 267.053414 
L 525.937374 266.761486 
L 528.165657 266.438528 
L 530.393939 266.081245 
L 532.622222 265.685987 
L 534.850505 265.248717 
L 537.078788 264.764971 
L 539.307071 264.229809 
L 541.535354 263.637766 
L 543.763636 262.982795 
L 545.991919 262.258209 
L 548.220202 261.456609 
L 550.448485 260.569808 
L 552.676768 259.588751 
L 554.905051 258.50342 
L 557.133333 257.302731 
L 559.361616 255.974424 
L 561.589899 254.504933 
L 563.818182 252.879254 
L 566.046465 251.080785 
L 568.274747 249.09116 
L 570.50303 246.890063 
L 572.731313 244.455016 
L 574.959596 241.761153 
L 577.187879 238.780965 
L 579.416162 235.484019 
L 581.644444 231.836649 
L 583.872727 227.801607 
L 586.10101 223.337689 
L 588.329293 218.399312 
L 590.557576 212.936045 
L 592.785859 206.892099 
L 595.014141 203.633333 
L 597.242424 203.633333 
L 599.470707 203.633333 
L 601.69899 203.633333 
L 603.927273 203.633333 
L 606.155556 203.633333 
L 608.383838 203.633333 
L 610.612121 203.633333 
L 612.840404 203.633333 
L 615.068687 203.633333 
L 617.29697 203.633333 
L 619.525253 203.633333 
L 621.753535 203.633333 
L 623.981818 203.633333 
L 626.210101 203.633333 
L 628.438384 203.633333 
L 630.666667 203.633333 
L 632.894949 203.633333 
L 635.123232 203.633333 
L 637.351515 203.633333 
L 639.579798 203.633333 
L 641.808081 203.633333 
L 644.036364 203.633333 
L 646.264646 203.633333 
L 648.492929 203.633333 
L 650.721212 203.633333 
L 652.949495 203.633333 
L 655.177778 203.633333 
L 657.406061 203.633333 
L 659.634343 203.633333 
L 661.862626 203.633333 
L 664.090909 203.633333 
L 666.319192 203.633333 
L 668.547475 203.633333 
L 670.775758 203.633333 
L 673.00404 203.633333 
L 675.232323 203.633333 
L 677.460606 203.633333 
L 679.688889 203.633333 
L 681.917172 203.633333 
L 684.145455 203.633333 
L 686.373737 203.633333 
L 688.60202 203.633333 
L 690.830303 203.633333 
L 693.058586 203.633333 
L 695.286869 203.633333 
L 697.515152 203.633333 
L 699.743434 203.633333 
L 701.971717 203.633333 
L 704.2 203.633333 
" clip-path="url(#pd9eddd2816)" style="fill: none; stroke-dasharray: 4,6.6; stroke-dashoffset: 0; stroke: #8785ba; stroke-width: 4"/>
   </g>
   <g id="patch_18">
    <path d="M 593.9 349.2 
L 593.9 190.4 
" style="fill: none; stroke: #d0d3d6; stroke-width: 3; stroke-linejoin: miter; stroke-linecap: square"/>
   </g>
   <g id="patch_19">
    <path d="M 483.6 269.8 
L 704.2 269.8 
" style="fill: none; stroke: #d0d3d6; stroke-width: 3; stroke-linejoin: miter; stroke-linecap: square"/>
   </g>
   <g id="legend_1">
    <g id="line2d_25">
     <path d="M 635.56 314.090625 
L 647.56 314.090625 
L 659.56 314.090625 
" style="fill: none; stroke: #423b64; stroke-width: 4; stroke-linecap: square"/>
    </g>
    <g id="text_1">
     <!-- $f(x)$ -->
     <g transform="translate(669.16 318.290625) scale(0.12 -0.12)">
      <defs>
       <path id="DejaVuSans-Oblique-66" d="M 3059 4863 
L 2969 4384 
L 2419 4384 
Q 2106 4384 1964 4261 
Q 1822 4138 1753 3809 
L 1691 3500 
L 2638 3500 
L 2553 3053 
L 1606 3053 
L 1013 0 
L 434 0 
L 1031 3053 
L 481 3053 
L 563 3500 
L 1113 3500 
L 1159 3744 
Q 1278 4363 1576 4613 
Q 1875 4863 2516 4863 
L 3059 4863 
z
" transform="scale(0.015625)"/>
       <path id="DejaVuSans-28" d="M 1984 4856 
Q 1566 4138 1362 3434 
Q 1159 2731 1159 2009 
Q 1159 1288 1364 580 
Q 1569 -128 1984 -844 
L 1484 -844 
Q 1016 -109 783 600 
Q 550 1309 550 2009 
Q 550 2706 781 3412 
Q 1013 4119 1484 4856 
L 1984 4856 
z
" transform="scale(0.015625)"/>
       <path id="DejaVuSans-Oblique-78" d="M 3841 3500 
L 2234 1784 
L 3219 0 
L 2559 0 
L 1819 1388 
L 531 0 
L -166 0 
L 1556 1844 
L 641 3500 
L 1300 3500 
L 1972 2234 
L 3144 3500 
L 3841 3500 
z
" transform="scale(0.015625)"/>
       <path id="DejaVuSans-29" d="M 513 4856 
L 1013 4856 
Q 1481 4119 1714 3412 
Q 1947 2706 1947 2009 
Q 1947 1309 1714 600 
Q 1481 -109 1013 -844 
L 513 -844 
Q 928 -128 1133 580 
Q 1338 1288 1338 2009 
Q 1338 2731 1133 3434 
Q 928 4138 513 4856 
z
" transform="scale(0.015625)"/>
      </defs>
      <use xlink:href="#DejaVuSans-Oblique-66" transform="translate(0 0.015625)"/>
      <use xlink:href="#DejaVuSans-28" transform="translate(35.205078 0.015625)"/>
      <use xlink:href="#DejaVuSans-Oblique-78" transform="translate(74.21875 0.015625)"/>
      <use xlink:href="#DejaVuSans-29" transform="translate(133.398438 0.015625)"/>
     </g>
    </g>
    <g id="line2d_26">
     <path d="M 635.56 331.704375 
L 647.56 331.704375 
L 659.56 331.704375 
" style="fill: none; stroke-dasharray: 4,6.6; stroke-dashoffset: 0; stroke: #8785ba; stroke-width: 4"/>
    </g>
    <g id="text_2">
     <!-- $f'(x)$ -->
     <g transform="translate(669.16 335.904375) scale(0.12 -0.12)">
      <defs>
       <path id="Cmsy10-30" d="M 225 347 
Q 184 359 184 409 
L 966 3316 
Q 1003 3434 1093 3506 
Q 1184 3578 1300 3578 
Q 1450 3578 1564 3479 
Q 1678 3381 1678 3231 
Q 1678 3166 1644 3084 
L 488 319 
Q 466 275 428 275 
Q 394 275 320 306 
Q 247 338 225 347 
z
" transform="scale(0.015625)"/>
      </defs>
      <use xlink:href="#DejaVuSans-Oblique-66" transform="translate(0 0.584375)"/>
      <use xlink:href="#Cmsy10-30" transform="translate(42.652786 38.865625) scale(0.7)"/>
      <use xlink:href="#DejaVuSans-28" transform="translate(64.630326 0.584375)"/>
      <use xlink:href="#DejaVuSans-Oblique-78" transform="translate(103.643997 0.584375)"/>
      <use xlink:href="#DejaVuSans-29" transform="translate(162.823685 0.584375)"/>
     </g>
    </g>
   </g>
  </g>
 </g>
 <defs>
  <clipPath id="p78a571cef9">
   <rect x="10.8" y="15.8" width="220.6" height="158.8"/>
  </clipPath>
  <clipPath id="pa2ebc58fdf">
   <rect x="247.2" y="15.8" width="220.6" height="158.8"/>
  </clipPath>
  <clipPath id="p23f5d8d082">
   <rect x="483.6" y="15.8" width="220.6" height="158.8"/>
  </clipPath>
  <clipPath id="p6b3affeff1">
   <rect x="10.8" y="190.4" width="220.6" height="158.8"/>
  </clipPath>
  <clipPath id="p4fb5830029">
   <rect x="247.2" y="190.4" width="220.6" height="158.8"/>
  </clipPath>
  <clipPath id="pd9eddd2816">
   <rect x="483.6" y="190.4" width="220.6" height="158.8"/>
  </clipPath>
 </defs>
</svg>
